<?xml version="1.0"?>
<svg xmlns="http://www.w3.org/2000/svg" xmlns:xlink="http://www.w3.org/1999/xlink" xmlns:svgjs="http://svgjs.com/svgjs" version="1.1" width="512" height="512" x="0" y="0" viewBox="0 0 511.501 511.501" style="enable-background:new 0 0 512 512" xml:space="preserve"><g><g xmlns="http://www.w3.org/2000/svg"><path d="m509.304 436.14-21.047-21.047c-2.929-2.929-7.678-2.929-10.606 0-2.929 2.929-2.929 7.678 0 10.606l8.244 8.244h-36.199v-275.56c0-7.311-5.948-13.259-13.258-13.259h-56.523c-7.311 0-13.258 5.948-13.258 13.259v230.348c0 4.142 3.358 7.5 7.5 7.5s7.5-3.358 7.5-7.5v-228.606h53.04v273.819h-53.04v-13.25c0-4.142-3.358-7.5-7.5-7.5s-7.5 3.358-7.5 7.5v13.25h-20.749v-210.693c0-7.311-5.948-13.259-13.259-13.259h-56.522c-7.311 0-13.259 5.948-13.259 13.259v210.692h-20.749v-168.222c0-7.311-5.948-13.259-13.259-13.259h-56.522c-7.311 0-13.259 5.948-13.259 13.259v47.765c0 4.142 3.358 7.5 7.5 7.5s7.5-3.358 7.5-7.5v-46.024h53.04v166.481h-53.04v-88.495c0-4.142-3.358-7.5-7.5-7.5s-7.5 3.358-7.5 7.5v88.495h-20.749v-114.544c0-7.311-5.948-13.259-13.258-13.259h-56.525c-7.311 0-13.258 5.948-13.258 13.259v69.333c0 4.142 3.358 7.5 7.5 7.5s7.5-3.358 7.5-7.5v-67.592h53.04v112.803h-53.04v-13.25c0-4.142-3.358-7.5-7.5-7.5s-7.5 3.358-7.5 7.5v13.25h-18.689v-360.813l8.244 8.244c1.464 1.464 3.384 2.197 5.303 2.197s3.839-.732 5.303-2.197c2.929-2.929 2.929-7.678 0-10.606l-21.047-21.047c-2.929-2.929-7.678-2.929-10.606 0l-21.047 21.047c-2.929 2.929-2.929 7.678 0 10.606 2.929 2.929 7.678 2.929 10.606 0l8.244-8.244v360.813h-14.1c-4.142 0-7.5 3.358-7.5 7.5s3.358 7.5 7.5 7.5h478.394l-8.244 8.244c-2.929 2.929-2.929 7.678 0 10.606 1.464 1.464 3.384 2.197 5.303 2.197s3.839-.732 5.303-2.197l21.047-21.047c2.93-2.928 2.93-7.677.001-10.606zm-231.438-2.197v-208.951h53.04v208.951z" fill="#ffffff" data-original="#000000" style=""/><path d="m55.289 214.872c0 4.142 3.358 7.5 7.5 7.5h36.525c58.532 0 116.483-15.084 167.588-43.621 47.839-26.713 88.787-64.719 119.013-110.343l1.416 11.079c.484 3.786 3.711 6.55 7.43 6.55.317 0 .638-.02.96-.062 4.109-.525 7.014-4.282 6.489-8.39l-3.774-29.525c-.252-1.973-1.278-3.765-2.852-4.982-1.573-1.216-3.563-1.76-5.539-1.506l-29.525 3.774c-4.108.525-7.014 4.282-6.488 8.391.525 4.108 4.278 7.008 8.391 6.488l11.916-1.523c-28.995 44.265-68.503 81.129-114.75 106.953-48.875 27.292-104.297 41.718-160.275 41.718h-36.525c-4.142-.001-7.5 3.357-7.5 7.499z" fill="#ffffff" data-original="#000000" style=""/></g></g></svg>
