<?xml version="1.0"?>
<svg xmlns="http://www.w3.org/2000/svg" xmlns:xlink="http://www.w3.org/1999/xlink" xmlns:svgjs="http://svgjs.com/svgjs" version="1.1" width="512" height="512" x="0" y="0" viewBox="0 0 64 64" style="enable-background:new 0 0 512 512" xml:space="preserve"><g><path xmlns="http://www.w3.org/2000/svg" d="m54 13v-4h-2v-4h-2v-4h-35c-3.86 0-7 3.141-7 7v48c0 3.859 3.14 7 7 7h41v-50zm-4-6v2h-35c-.551 0-1-.448-1-1s.449-1 1-1zm-35-4h33v2h-33c-1.654 0-3 1.346-3 3s1.346 3 3 3h37v2h-37c-2.757 0-5-2.243-5-5s2.243-5 5-5zm39 58h-39c-2.757 0-5-2.243-5-5v-43.105c1.271 1.298 3.043 2.105 5 2.105h39z" fill="#ffffff" data-original="#000000" style=""/><path xmlns="http://www.w3.org/2000/svg" d="m23.515 45h16.971v2h-16.971z" transform="matrix(.707 -.707 .707 .707 -23.154 36.101)" fill="#ffffff" data-original="#000000" style=""/><path xmlns="http://www.w3.org/2000/svg" d="m28 45c1.654 0 3-1.346 3-3s-1.346-3-3-3-3 1.346-3 3 1.346 3 3 3zm0-4c.551 0 1 .448 1 1s-.449 1-1 1-1-.448-1-1 .449-1 1-1z" fill="#ffffff" data-original="#000000" style=""/><path xmlns="http://www.w3.org/2000/svg" d="m36 47c-1.654 0-3 1.346-3 3s1.346 3 3 3 3-1.346 3-3-1.346-3-3-3zm0 4c-.551 0-1-.448-1-1s.449-1 1-1 1 .448 1 1-.449 1-1 1z" fill="#ffffff" data-original="#000000" style=""/><path xmlns="http://www.w3.org/2000/svg" d="m21 57h22c2.757 0 5-2.243 5-5v-12c0-2.757-2.243-5-5-5h-22c-2.757 0-5 2.243-5 5v12c0 2.757 2.243 5 5 5zm-3-17c0-1.654 1.346-3 3-3h22c1.654 0 3 1.346 3 3v12c0 1.654-1.346 3-3 3h-22c-1.654 0-3-1.346-3-3z" fill="#ffffff" data-original="#000000" style=""/><path xmlns="http://www.w3.org/2000/svg" d="m42 29.333 2-2.667 2 2.667v1.667h2v-2.333l-2.75-3.667 2.75-3.667v-2.333h-2v1.667l-2 2.667-2-2.667v-1.667h-2v2.333l2.75 3.667-2.75 3.667v2.333h2z" fill="#ffffff" data-original="#000000" style=""/><path xmlns="http://www.w3.org/2000/svg" d="m30 29h4v2h2v-3l-2.219-9h-3.562l-2.189 8.758-.03 3.242h2zm2.219-8 1.5 6h-3.438l1.5-6z" fill="#ffffff" data-original="#000000" style=""/><path xmlns="http://www.w3.org/2000/svg" d="m20 31h2v-10h4v-2h-10v2h4z" fill="#ffffff" data-original="#000000" style=""/></g></svg>
